<svg width="216" height="50" viewBox="0 0 216 50" fill="none" xmlns="http://www.w3.org/2000/svg">
<path d="M215.664 15.48H214.304C213.69 15.48 213.17 15.6 212.744 15.84C213.49 16.7733 213.864 18.0133 213.864 19.56V22.84C213.864 24.7067 213.29 26.16 212.144 27.2C211.024 28.24 209.317 28.7733 207.024 28.8C205.77 28.8 205.144 29.3867 205.144 30.56C205.144 31.12 205.304 31.52 205.624 31.76C205.97 32 206.57 32.12 207.424 32.12H209.744C213.53 32.12 215.424 33.7067 215.424 36.88V37.56C215.424 41.16 212.877 42.96 207.784 42.96H206.224C203.317 42.96 201.117 42.4933 199.624 41.56V38.04C201.384 39.1867 203.557 39.76 206.144 39.76H207.424C209.024 39.76 210.157 39.5733 210.824 39.2C211.49 38.8267 211.824 38.2667 211.824 37.52V37.16C211.824 36.52 211.65 36.0533 211.304 35.76C210.984 35.44 210.344 35.28 209.384 35.28H206.944C203.504 35.28 201.784 34.12 201.784 31.8V31.16C201.784 29.6667 202.49 28.76 203.904 28.44C201.21 27.6667 199.864 25.8 199.864 22.84V19.56C199.864 17.6667 200.437 16.2 201.584 15.16C202.757 14.12 204.384 13.6 206.464 13.6C208.544 13.6 210.144 13.92 211.264 14.56C211.824 12.8533 213.09 12 215.064 12H215.664V15.48ZM210.104 22.8V19.6C210.104 18.6133 209.85 17.8933 209.344 17.44C208.837 16.96 208.01 16.72 206.864 16.72C205.717 16.72 204.89 16.96 204.384 17.44C203.877 17.8933 203.624 18.6133 203.624 19.6V22.8C203.624 23.7867 203.877 24.52 204.384 25C204.89 25.4533 205.717 25.68 206.864 25.68C208.01 25.68 208.837 25.4533 209.344 25C209.85 24.52 210.104 23.7867 210.104 22.8Z" fill="white"/>
<path d="M192.53 19.96C192.53 17.9067 191.504 16.88 189.45 16.88C187.397 16.88 186.37 17.9067 186.37 19.96V31.04C186.37 33.0933 187.397 34.12 189.45 34.12C191.504 34.12 192.53 33.0933 192.53 31.04V19.96ZM182.65 19.88C182.65 17.96 183.21 16.44 184.33 15.32C185.45 14.1733 187.157 13.6 189.45 13.6C191.744 13.6 193.45 14.1733 194.57 15.32C195.717 16.44 196.29 17.96 196.29 19.88V31.12C196.29 33.04 195.717 34.5733 194.57 35.72C193.45 36.84 191.744 37.4 189.45 37.4C187.157 37.4 185.45 36.84 184.33 35.72C183.21 34.5733 182.65 33.04 182.65 31.12V19.88Z" fill="white"/>
<path d="M174.339 7.88H178.099V37H174.339V7.88Z" fill="white"/>
<path d="M169.555 16.04V18.4C169.555 20.9333 168.595 22.56 166.675 23.28C168.755 23.9733 169.795 25.6533 169.795 28.32V30.84C169.795 32.84 169.235 34.3733 168.115 35.44C167.022 36.48 165.395 37 163.235 37H155.355V9.88H162.995C165.155 9.88 166.782 10.4133 167.875 11.48C168.995 12.52 169.555 14.04 169.555 16.04ZM162.555 13.12H159.115V21.68H162.555C164.742 21.68 165.835 20.64 165.835 18.56V16.2C165.835 14.1467 164.742 13.12 162.555 13.12ZM166.075 30.68V28.12C166.075 26.0667 164.982 25.04 162.795 25.04H159.115V33.76H162.795C164.982 33.76 166.075 32.7333 166.075 30.68Z" fill="white"/>
<path d="M137.572 30.92V19.88C137.572 17.96 138.132 16.44 139.252 15.32C140.372 14.1733 142.079 13.6 144.372 13.6C146.666 13.6 148.359 14.1733 149.452 15.32C150.546 16.44 151.092 17.96 151.092 19.88V27.2H141.252V30.72C141.252 31.7867 141.572 32.5733 142.212 33.08C142.879 33.5867 144.026 33.84 145.652 33.84C147.306 33.84 148.906 33.6 150.452 33.12V36.56C148.852 36.9867 147.146 37.2 145.332 37.2C140.159 37.2 137.572 35.1067 137.572 30.92ZM141.252 24.16H147.532V19.92C147.532 17.84 146.479 16.8 144.372 16.8C142.292 16.8 141.252 17.84 141.252 19.92V24.16Z" fill="white"/>
<path d="M129.261 7.88H133.021V37H129.261V7.88Z" fill="white"/>
<path d="M120.895 19.76C120.895 18.1867 120.082 17.4 118.455 17.4C117.282 17.4 116.109 17.6933 114.935 18.28V33.56H117.815C119.869 33.56 120.895 32.5867 120.895 30.64V19.76ZM114.775 15.08C116.322 14.3067 117.882 13.92 119.455 13.92C121.055 13.92 122.322 14.36 123.255 15.24C124.215 16.12 124.695 17.4133 124.695 19.12V31.04C124.695 32.96 124.149 34.44 123.055 35.48C121.989 36.4933 120.549 37 118.735 37H114.935V42.96H111.175V14H114.775V15.08Z" fill="white"/>
<path d="M95.5238 15.48C97.3371 14.44 99.1238 13.92 100.884 13.92C102.67 13.92 104.03 14.36 104.964 15.24C105.924 16.12 106.404 17.4133 106.404 19.12V37H102.604V19.76C102.604 18.1867 101.804 17.4 100.204 17.4C98.9238 17.4 97.7104 17.76 96.5638 18.48C96.6971 18.7733 96.7638 19.1867 96.7638 19.72V37H92.9238V19.76C92.9238 18.1867 92.1371 17.4 90.5638 17.4C89.4171 17.4 88.2571 17.6933 87.0838 18.28V37H83.3238V14H86.9238V15.04C88.6304 14.2933 90.2571 13.92 91.8038 13.92C93.3504 13.92 94.5904 14.44 95.5238 15.48Z" fill="white"/>
<path d="M78.6928 9.8C78.6928 11.2667 77.9595 12 76.4928 12C75.0262 12 74.2928 11.2667 74.2928 9.8C74.2928 8.30666 75.0262 7.56 76.4928 7.56C77.9595 7.56 78.6928 8.30666 78.6928 9.8ZM74.6128 14.28H78.3728V37H74.6128V14.28Z" fill="white"/>
<path d="M57.04 15.64C57.04 13.7467 57.6533 12.28 58.88 11.24C60.1333 10.2 61.9067 9.68 64.2 9.68C66.4933 9.68 68.36 9.92 69.8 10.4V14C68.36 13.44 66.6133 13.16 64.56 13.16C62.08 13.16 60.84 14.08 60.84 15.92V17.48C60.84 18.3333 61 19.0133 61.32 19.52C61.6667 20 62.2667 20.48 63.12 20.96L67.76 23.56C69.92 24.7333 71 26.5067 71 28.88V31.12C71 33.0667 70.32 34.5733 68.96 35.64C67.6 36.68 65.68 37.2 63.2 37.2C60.7467 37.2 58.7733 36.92 57.28 36.36V32.76C59.04 33.4 60.8933 33.72 62.84 33.72C65.7467 33.72 67.2 32.7333 67.2 30.76V29.4C67.2 28.6 67.0533 27.9867 66.76 27.56C66.4667 27.1067 65.92 26.6667 65.12 26.24L60.6 23.76C58.2267 22.48 57.04 20.5733 57.04 18.04V15.64Z" fill="white"/>
<rect x="1" y="1" width="49" height="48" rx="9" stroke="white" stroke-width="2"/>
<rect x="6" y="8" width="25" height="3" rx="1.5" fill="white"/>
<rect x="6" y="15" width="39" height="2" rx="1" fill="white" fill-opacity="0.5"/>
<rect x="6" y="20" width="39" height="2" rx="1" fill="white" fill-opacity="0.5"/>
<rect x="6" y="25" width="39" height="2" rx="1" fill="white" fill-opacity="0.5"/>
<rect x="6" y="30" width="39" height="2" rx="1" fill="white" fill-opacity="0.5"/>
<rect x="6" y="35" width="39" height="2" rx="1" fill="white" fill-opacity="0.5"/>
<rect x="6" y="40" width="39" height="2" rx="1" fill="white" fill-opacity="0.5"/>
</svg>
